<svg width="38" height="37" viewBox="0 0 38 37" fill="none" xmlns="http://www.w3.org/2000/svg">
<path d="M10.9583 12.3333V24.6667C10.9583 26.711 11.7704 28.6717 13.216 30.1173C14.6616 31.5629 16.6223 32.375 18.6666 32.375C20.711 32.375 22.6717 31.5629 24.1173 30.1173C25.5629 28.6717 26.375 26.711 26.375 24.6667V10.0208C26.375 8.58977 25.8065 7.21732 24.7946 6.2054C23.7827 5.19349 22.4102 4.625 20.9791 4.625C19.5481 4.625 18.1756 5.19349 17.1637 6.2054C16.1518 7.21732 15.5833 8.58977 15.5833 10.0208V23.125C15.5833 23.9428 15.9082 24.727 16.4864 25.3052C17.0646 25.8835 17.8489 26.2083 18.6666 26.2083C19.4844 26.2083 20.2687 25.8835 20.8469 25.3052C21.4251 24.727 21.75 23.9428 21.75 23.125V12.3333" stroke="#777777" stroke-width="1.32143" stroke-linecap="round" stroke-linejoin="round"/>
</svg>
