<svg width="99" height="99" viewBox="0 0 99 99" fill="none" xmlns="http://www.w3.org/2000/svg">
<path d="M56.725 89.3986L58.9251 85.6346L53.6243 82.5333L51.4201 86.2973L56.725 89.3986ZM40.2956 85.7341L42.5358 89.4743L47.8032 86.3166L45.5671 82.5763L40.2956 85.7341ZM51.4201 86.2973C51.2303 86.6048 50.9654 86.8589 50.6503 87.0357C50.3353 87.2126 49.9804 87.3064 49.6191 87.3083C49.2577 87.3103 48.9019 87.2203 48.5849 87.0468C48.268 86.8733 48.0004 86.622 47.8073 86.3166L42.5358 89.4743C45.7308 94.8112 53.5832 94.7692 56.725 89.3986L51.4201 86.2973ZM43.0702 11.5597L55.3587 11.4941L55.3259 5.34977L43.0374 5.41538L43.0702 11.5597ZM87.2737 43.0701L87.2956 47.1663L93.4399 47.1335L93.418 43.0373L87.2737 43.0701ZM11.516 47.5708L11.4942 43.4747L5.34988 43.5075L5.37175 47.6036L11.516 47.5708ZM5.37175 47.6036C5.39701 52.3348 5.41675 56.0336 5.63751 59.0186C5.85839 62.0283 6.29368 64.5329 7.26867 66.8462L12.9334 64.4647C12.3236 63.026 11.9619 61.2665 11.7632 58.5681C11.5602 55.8411 11.5417 52.3839 11.516 47.5708L5.37175 47.6036ZM32.3615 75.0769C27.2162 75.0142 24.5192 74.7009 22.4009 73.8356L20.0841 79.5255C23.3888 80.876 27.1426 81.1632 32.2879 81.2258L32.3615 75.0769ZM7.26867 66.8462C8.46758 69.6976 10.2164 72.2849 12.4153 74.4604C14.6142 76.636 17.22 78.3571 20.0841 79.5255L22.4009 73.8356C18.126 72.0915 14.7231 68.7207 12.9334 64.4647L7.26867 66.8462ZM87.2956 47.1663C87.3213 51.9793 87.3398 55.4365 87.1659 58.1655C86.996 60.8659 86.6531 62.6292 86.0628 64.0742L91.7485 66.3951C92.6988 64.0716 93.1073 61.5624 93.3001 58.5506C93.489 55.5634 93.4651 51.8646 93.4399 47.1335L87.2956 47.1663ZM66.8843 81.0329C72.0286 80.9194 75.7791 80.5963 79.0693 79.2105L76.6877 73.5458C74.5829 74.4336 71.8893 74.7757 66.7491 74.8933L66.8843 81.0329ZM86.0628 64.0742C84.3187 68.3491 80.9478 71.7561 76.6918 73.5458L79.0693 79.2105C81.9207 78.0116 84.508 76.2628 86.6835 74.0639C88.8591 71.8651 90.5801 69.2592 91.7485 66.3951L86.0628 64.0742ZM55.3587 11.4941C62.1216 11.458 66.9796 11.432 70.7706 11.7763C74.5164 12.1127 76.8999 12.78 78.8068 13.9332L81.9861 8.67701C78.9491 6.84169 75.5121 6.03259 71.3196 5.65353C67.1721 5.28243 61.97 5.3143 55.3259 5.34977L55.3587 11.4941ZM93.418 43.0373C93.3825 36.3932 93.3548 31.1952 92.9394 27.0478C92.5197 22.8595 91.6739 19.4273 89.8063 16.4141L84.5803 19.6495C85.7579 21.5439 86.4505 23.9201 86.8269 27.6662C87.2076 31.4492 87.2376 36.3072 87.2737 43.0701L93.418 43.0373ZM78.8027 13.9332C81.1541 15.3556 83.1353 17.3144 84.5844 19.6494L89.8063 16.4141C87.8468 13.254 85.167 10.6026 81.9861 8.67701L78.8027 13.9332ZM43.0374 5.41538C36.3933 5.45086 31.1953 5.47861 27.0479 5.8899C22.8596 6.3137 19.4274 7.15948 16.4143 9.0271L19.6496 14.2531C21.544 13.0755 23.9202 12.3829 27.6663 12.0065C31.4493 11.6258 36.3074 11.5958 43.0702 11.5597L43.0374 5.41538ZM11.4942 43.4747C11.4581 36.7118 11.4321 31.8538 11.7765 28.0628C12.1128 24.317 12.7801 21.9335 13.9333 20.0266L8.67713 16.8514C6.84179 19.8843 6.03269 23.3213 5.65364 27.5138C5.28667 31.6695 5.3144 36.8634 5.34988 43.5075L11.4942 43.4747ZM16.4143 9.0271C13.2541 10.9866 10.6027 13.6705 8.67713 16.8514L13.9374 20.0266C15.3591 17.6772 17.3164 15.6974 19.6495 14.249L16.4143 9.0271ZM45.563 82.5764C44.7281 81.1758 43.9923 79.9385 43.2744 78.9674C42.5384 77.8999 41.5807 77.0038 40.4667 76.3403L37.4065 81.6696C37.5997 81.7832 37.867 81.9866 38.3291 82.615C38.8284 83.2923 39.3946 84.2314 40.2956 85.7341L45.563 82.5764ZM32.2878 81.2176C34.0903 81.2408 35.2251 81.2593 36.094 81.3489C36.9055 81.4347 37.2216 81.5641 37.4065 81.6696L40.4667 76.3403C39.3186 75.7058 38.0458 75.3295 36.7373 75.2378C35.5159 75.1092 34.0493 75.0965 32.3615 75.0769L32.2878 81.2176ZM58.9251 85.6346C59.8101 84.1265 60.3662 83.1773 60.8582 82.4947C61.3136 81.8614 61.5788 81.6552 61.7707 81.5395L58.6538 76.2432C57.4696 76.9459 56.6143 77.8721 55.8743 78.9002C55.1709 79.8789 54.4442 81.1198 53.6202 82.5333L58.9251 85.6346ZM66.7491 74.8933C65.0616 74.931 63.5912 74.9593 62.3712 75.101C61.0981 75.2511 59.8503 75.5405 58.6538 76.2432L61.7707 81.5395C61.9544 81.432 62.2691 81.2992 63.0797 81.2048C63.9476 81.1059 65.0862 81.0712 66.8884 81.0329L66.7491 74.8933Z" fill="#4A558A" fill-opacity="0.45"/>
<path d="M58.1003 54.4485C58.1003 56.9826 54.22 59.0369 49.4333 59.0369C44.6466 59.0369 40.7662 56.9826 40.7662 54.4485" stroke="#4A558A" stroke-opacity="0.45" stroke-width="3.3333" stroke-linecap="round"/>
<circle cx="34.1392" cy="35.0765" r="7.13756" fill="#4A558A" fill-opacity="0.45"/>
<circle cx="34.1392" cy="35.0765" r="6.88267" stroke="#4A558A" stroke-opacity="0.45" stroke-width="0.509798"/>
<circle cx="64.7272" cy="35.0765" r="7.13756" fill="#4A558A" fill-opacity="0.45"/>
<circle cx="64.7272" cy="35.0765" r="6.88267" stroke="#4A558A" stroke-opacity="0.45" stroke-width="0.509798"/>
</svg>
