<svg width="226" height="167" viewBox="0 0 226 167" fill="none" xmlns="http://www.w3.org/2000/svg">
<path d="M16.0293 104.437H24.3082L17.7027 166.088H8.19079L1.58531 104.437H9.86418L12.9467 143.453L16.0293 104.437ZM40.5941 104.437L46.9354 166.088H38.6565L37.5115 152.701H33.1079L32.051 166.088H23.7722L30.1134 104.437H40.5941ZM33.5483 145.391H37.0712L35.3097 121.347L33.5483 145.391ZM68.3399 104.437L61.2059 140.547V166.088H52.3986V140.547L45.5289 104.437H54.4243L56.8904 126.455L59.3564 104.437H68.3399ZM74.7685 104.437H86.3941C93.2638 104.437 95.906 108.4 95.906 113.42V157.017C95.906 162.037 93.2638 166.088 86.3941 166.088H74.7685V104.437ZM83.4877 157.633H85.4253C86.3941 157.633 87.1868 156.84 87.1868 155.96V114.477C87.1868 113.597 86.3941 112.804 85.4253 112.804H83.4877V157.633ZM111.437 166.088H102.718V104.437H111.437V166.088ZM130.698 142.22H139.418V157.897C139.418 162.741 135.542 166.617 130.698 166.617H127.087C122.243 166.617 118.368 162.741 118.368 157.897V112.54C118.368 107.696 122.243 103.82 127.087 103.82H130.698C135.542 103.82 139.418 107.696 139.418 112.54V127.072H130.698V113.861C130.698 112.98 129.906 112.187 128.937 112.187H128.849C127.88 112.187 127.087 112.98 127.087 113.861V156.576C127.087 157.457 127.88 158.25 128.849 158.25H128.937C129.906 158.25 130.698 157.457 130.698 156.576V142.22ZM158.648 104.437H167.367V157.809C167.367 162.653 163.492 166.617 158.648 166.617H155.037C150.193 166.617 146.318 162.653 146.318 157.809V104.437H155.037V156.488C155.037 157.457 155.829 158.25 156.71 158.25H156.886C157.855 158.25 158.648 157.457 158.648 156.488V104.437ZM190.208 135.439C193.027 135.439 195.404 137.729 195.404 140.635V166.088H186.597V142.22C186.597 140.811 185.452 139.578 183.955 139.578H182.986V166.088H174.267V104.437H188.447C192.234 104.437 195.404 107.52 195.404 111.307V130.066C195.404 133.061 192.938 135.439 190.032 135.439H190.208ZM186.597 114.477C186.597 113.597 185.805 112.804 184.924 112.804H182.986V131.211H184.572C185.716 131.211 186.597 130.33 186.597 129.185V114.477ZM220.005 112.804H211.022V131.035H217.891V139.402H211.022V157.633H220.005V166.088H202.302V104.437H220.005V112.804Z" fill="#777777" fill-opacity="0.3"/>
<path d="M113.725 89.3986L115.925 85.6346L110.624 82.5333L108.42 86.2973L113.725 89.3986ZM97.2956 85.7341L99.5358 89.4743L104.803 86.3166L102.567 82.5763L97.2956 85.7341ZM108.42 86.2973C108.23 86.6048 107.965 86.8589 107.65 87.0357C107.335 87.2126 106.98 87.3064 106.619 87.3083C106.258 87.3103 105.902 87.2203 105.585 87.0468C105.268 86.8733 105 86.622 104.807 86.3166L99.5358 89.4743C102.731 94.8112 110.583 94.7692 113.725 89.3986L108.42 86.2973ZM100.07 11.5597L112.359 11.4941L112.326 5.34977L100.037 5.41538L100.07 11.5597ZM144.274 43.0701L144.296 47.1663L150.44 47.1335L150.418 43.0373L144.274 43.0701ZM68.516 47.5708L68.4942 43.4747L62.3499 43.5075L62.3717 47.6036L68.516 47.5708ZM62.3717 47.6036C62.397 52.3348 62.4168 56.0336 62.6375 59.0186C62.8584 62.0283 63.2937 64.5329 64.2687 66.8462L69.9334 64.4647C69.3236 63.026 68.9619 61.2665 68.7632 58.5681C68.5602 55.8411 68.5417 52.3839 68.516 47.5708L62.3717 47.6036ZM89.3615 75.0769C84.2162 75.0142 81.5192 74.7009 79.4009 73.8356L77.0841 79.5255C80.3888 80.876 84.1426 81.1632 89.2879 81.2258L89.3615 75.0769ZM64.2687 66.8462C65.4676 69.6976 67.2164 72.2849 69.4153 74.4604C71.6142 76.636 74.22 78.3571 77.0841 79.5255L79.4009 73.8356C75.126 72.0915 71.7231 68.7207 69.9334 64.4647L64.2687 66.8462ZM144.296 47.1663C144.321 51.9793 144.34 55.4365 144.166 58.1655C143.996 60.8659 143.653 62.6292 143.063 64.0742L148.749 66.3951C149.699 64.0716 150.107 61.5624 150.3 58.5506C150.489 55.5634 150.465 51.8646 150.44 47.1335L144.296 47.1663ZM123.884 81.0329C129.029 80.9194 132.779 80.5963 136.069 79.2105L133.688 73.5458C131.583 74.4336 128.889 74.7757 123.749 74.8933L123.884 81.0329ZM143.063 64.0742C141.319 68.3491 137.948 71.7561 133.692 73.5458L136.069 79.2105C138.921 78.0116 141.508 76.2628 143.684 74.0639C145.859 71.8651 147.58 69.2592 148.749 66.3951L143.063 64.0742ZM112.359 11.4941C119.122 11.458 123.98 11.432 127.771 11.7763C131.516 12.1127 133.9 12.78 135.807 13.9332L138.986 8.67701C135.949 6.84169 132.512 6.03259 128.32 5.65353C124.172 5.28243 118.97 5.3143 112.326 5.34977L112.359 11.4941ZM150.418 43.0373C150.383 36.3932 150.355 31.1952 149.939 27.0478C149.52 22.8595 148.674 19.4273 146.806 16.4141L141.58 19.6495C142.758 21.5439 143.451 23.9201 143.827 27.6662C144.208 31.4492 144.238 36.3072 144.274 43.0701L150.418 43.0373ZM135.803 13.9332C138.154 15.3556 140.135 17.3144 141.584 19.6494L146.806 16.4141C144.847 13.254 142.167 10.6026 138.986 8.67701L135.803 13.9332ZM100.037 5.41538C93.3933 5.45086 88.1953 5.47861 84.0479 5.8899C79.8596 6.3137 76.4274 7.15948 73.4143 9.0271L76.6496 14.2531C78.544 13.0755 80.9202 12.3829 84.6663 12.0065C88.4493 11.6258 93.3074 11.5958 100.07 11.5597L100.037 5.41538ZM68.4942 43.4747C68.4581 36.7118 68.4321 31.8538 68.7765 28.0628C69.1128 24.317 69.7801 21.9335 70.9333 20.0266L65.6771 16.8514C63.8418 19.8843 63.0327 23.3213 62.6536 27.5138C62.2867 31.6695 62.3144 36.8634 62.3499 43.5075L68.4942 43.4747ZM73.4143 9.0271C70.2541 10.9866 67.6027 13.6705 65.6771 16.8514L70.9374 20.0266C72.3591 17.6772 74.3164 15.6974 76.6495 14.249L73.4143 9.0271ZM102.563 82.5764C101.728 81.1758 100.992 79.9385 100.274 78.9674C99.5384 77.8999 98.5807 77.0038 97.4667 76.3403L94.4065 81.6696C94.5997 81.7832 94.867 81.9866 95.3291 82.615C95.8284 83.2923 96.3946 84.2314 97.2956 85.7341L102.563 82.5764ZM89.2878 81.2176C91.0903 81.2408 92.2251 81.2593 93.094 81.3489C93.9055 81.4347 94.2216 81.5641 94.4065 81.6696L97.4667 76.3403C96.3186 75.7058 95.0458 75.3295 93.7373 75.2378C92.5159 75.1092 91.0493 75.0965 89.3615 75.0769L89.2878 81.2176ZM115.925 85.6346C116.81 84.1265 117.366 83.1773 117.858 82.4947C118.314 81.8614 118.579 81.6552 118.771 81.5395L115.654 76.2432C114.47 76.9459 113.614 77.8721 112.874 78.9002C112.171 79.8789 111.444 81.1198 110.62 82.5333L115.925 85.6346ZM123.749 74.8933C122.062 74.931 120.591 74.9593 119.371 75.101C118.098 75.2511 116.85 75.5405 115.654 76.2432L118.771 81.5395C118.954 81.432 119.269 81.2992 120.08 81.2048C120.948 81.1059 122.086 81.0712 123.888 81.0329L123.749 74.8933Z" fill="#4A558A" fill-opacity="0.45"/>
<path d="M115.1 54.4485C115.1 56.9826 111.22 59.0369 106.433 59.0369C101.647 59.0369 97.7662 56.9826 97.7662 54.4485" stroke="#4A558A" stroke-opacity="0.45" stroke-width="3.3333" stroke-linecap="round"/>
<circle cx="91.1392" cy="35.0765" r="7.13756" fill="#4A558A" fill-opacity="0.45"/>
<circle cx="91.1392" cy="35.0765" r="6.88267" stroke="#4A558A" stroke-opacity="0.45" stroke-width="0.509798"/>
<circle cx="121.727" cy="35.0765" r="7.13756" fill="#4A558A" fill-opacity="0.45"/>
<circle cx="121.727" cy="35.0765" r="6.88267" stroke="#4A558A" stroke-opacity="0.45" stroke-width="0.509798"/>
</svg>
