<svg width="147" height="66" viewBox="0 0 147 66" fill="none" xmlns="http://www.w3.org/2000/svg">
<rect width="147" height="66" rx="20" fill="#393A3B"/>
<g clip-path="url(#clip0_115_2)">
<mask id="path-2-inside-1_115_2" fill="white">
<path fill-rule="evenodd" clip-rule="evenodd" d="M85.8755 23.8538C85.9014 23.6658 85.8818 23.4744 85.8185 23.2956L85.7877 23.146C85.7002 22.7821 85.5559 22.4342 85.3602 22.1153C85.1417 21.759 84.8329 21.4503 84.2154 20.8328L78.0642 14.6791C77.449 14.0616 77.1403 13.7529 76.7817 13.532C76.4195 13.3102 76.0205 13.155 75.6037 13.0736C75.4248 13.0103 75.2335 12.9908 75.0455 13.0166C74.7819 13.0095 74.4613 13.0095 74.0362 13.0095H66.4124C62.4224 13.0095 60.4274 13.0095 58.9074 13.7861C57.57 14.4716 56.4817 15.5599 55.7962 16.8974C55.0195 18.4221 55.0195 20.41 55.0195 24.4V39.6C55.0195 43.59 55.0195 45.585 55.7962 47.105C56.4817 48.4424 57.57 49.5307 58.9074 50.2163C60.4322 50.9929 62.4224 50.9929 66.4124 50.9929H69.2624V48.6179H66.4124C64.377 48.6179 62.9924 48.6155 61.9237 48.5276C60.8834 48.4421 60.349 48.2878 59.9762 48.1001C59.0833 47.6443 58.3576 46.9177 57.9028 46.0244C57.7128 45.6539 57.5584 45.1195 57.4753 44.0793C57.3874 43.0105 57.385 41.633 57.385 39.5905V24.3905C57.385 22.3551 57.385 20.9705 57.4753 19.9018C57.5584 18.8615 57.7128 18.3271 57.9028 17.9566C58.3588 17.0636 59.0855 16.3369 59.9785 15.8809C60.349 15.6909 60.881 15.5365 61.9237 15.4534C62.9924 15.3655 64.3699 15.3631 66.4124 15.3631H74.0124V23.6756C74.0122 23.9841 74.1321 24.2805 74.3467 24.5022C74.5612 24.7238 74.8536 24.8533 75.1619 24.8631H85.8969V24.8512C85.8969 24.4285 85.8969 24.1079 85.885 23.8419L85.8755 23.8538ZM76.3755 16.3488L82.5268 22.5H76.3755V16.3488Z"/>
</mask>
<path fill-rule="evenodd" clip-rule="evenodd" d="M85.8755 23.8538C85.9014 23.6658 85.8818 23.4744 85.8185 23.2956L85.7877 23.146C85.7002 22.7821 85.5559 22.4342 85.3602 22.1153C85.1417 21.759 84.8329 21.4503 84.2154 20.8328L78.0642 14.6791C77.449 14.0616 77.1403 13.7529 76.7817 13.532C76.4195 13.3102 76.0205 13.155 75.6037 13.0736C75.4248 13.0103 75.2335 12.9908 75.0455 13.0166C74.7819 13.0095 74.4613 13.0095 74.0362 13.0095H66.4124C62.4224 13.0095 60.4274 13.0095 58.9074 13.7861C57.57 14.4716 56.4817 15.5599 55.7962 16.8974C55.0195 18.4221 55.0195 20.41 55.0195 24.4V39.6C55.0195 43.59 55.0195 45.585 55.7962 47.105C56.4817 48.4424 57.57 49.5307 58.9074 50.2163C60.4322 50.9929 62.4224 50.9929 66.4124 50.9929H69.2624V48.6179H66.4124C64.377 48.6179 62.9924 48.6155 61.9237 48.5276C60.8834 48.4421 60.349 48.2878 59.9762 48.1001C59.0833 47.6443 58.3576 46.9177 57.9028 46.0244C57.7128 45.6539 57.5584 45.1195 57.4753 44.0793C57.3874 43.0105 57.385 41.633 57.385 39.5905V24.3905C57.385 22.3551 57.385 20.9705 57.4753 19.9018C57.5584 18.8615 57.7128 18.3271 57.9028 17.9566C58.3588 17.0636 59.0855 16.3369 59.9785 15.8809C60.349 15.6909 60.881 15.5365 61.9237 15.4534C62.9924 15.3655 64.3699 15.3631 66.4124 15.3631H74.0124V23.6756C74.0122 23.9841 74.1321 24.2805 74.3467 24.5022C74.5612 24.7238 74.8536 24.8533 75.1619 24.8631H85.8969V24.8512C85.8969 24.4285 85.8969 24.1079 85.885 23.8419L85.8755 23.8538ZM76.3755 16.3488L82.5268 22.5H76.3755V16.3488Z" fill="#777777"/>
<path d="M85.8755 23.8538L-19.0755 9.41674L-71.4447 390.118L168.603 90.0297L85.8755 23.8538ZM85.8185 23.2956L-17.9351 44.7043L-16.4689 51.8103L-14.0474 58.6501L85.8185 23.2956ZM85.7877 23.146L189.541 1.73735L189.194 0.0561008L188.793 -1.61302L85.7877 23.146ZM85.3602 22.1153L-4.94659 77.5034L-4.93964 77.5147L-4.93268 77.5261L85.3602 22.1153ZM84.2154 20.8328L9.29047 95.7287L9.29771 95.736L9.30494 95.7432L84.2154 20.8328ZM78.0642 14.6791L3.0095 89.4451L3.07431 89.5102L3.13922 89.5751L78.0642 14.6791ZM76.7817 13.532L132.338 -76.6716L132.221 -76.7435L132.104 -76.815L76.7817 13.532ZM75.6037 13.0736L40.2492 112.94L47.6286 115.552L55.3118 117.051L75.6037 13.0736ZM75.0455 13.0166L72.1833 118.917L80.8719 119.152L89.4825 117.968L75.0455 13.0166ZM58.9074 13.7861L10.7062 -80.5526L10.6454 -80.5216L10.5847 -80.4904L58.9074 13.7861ZM55.7962 16.8974L-38.4804 -31.4253L-38.5421 -31.3051L-38.6034 -31.1846L55.7962 16.8974ZM55.7962 47.105L-38.5426 95.3062L-38.5115 95.367L-38.4804 95.4277L55.7962 47.105ZM58.9074 50.2163L10.5847 144.493L10.705 144.554L10.8254 144.616L58.9074 50.2163ZM69.2624 50.9929V156.932H175.202V50.9929H69.2624ZM69.2624 48.6179H175.202V-57.3215H69.2624V48.6179ZM61.9237 48.5276L70.6049 -57.0555L70.6017 -57.0557L61.9237 48.5276ZM59.9762 48.1001L11.808 142.456L12.0824 142.596L12.3577 142.734L59.9762 48.1001ZM57.9028 46.0244L152.313 -2.03573L152.242 -2.17674L152.17 -2.31753L57.9028 46.0244ZM57.4753 44.0793L163.078 35.6407L163.068 35.5193L163.058 35.398L57.4753 44.0793ZM57.4753 19.9018L163.039 28.816L163.059 28.5782L163.078 28.3403L57.4753 19.9018ZM57.9028 17.9566L152.17 66.2985L152.211 66.217L152.253 66.1354L57.9028 17.9566ZM59.9785 15.8809L108.157 110.231L108.239 110.189L108.32 110.148L59.9785 15.8809ZM61.9237 15.4534L70.3431 121.058L70.474 121.047L70.6049 121.036L61.9237 15.4534ZM74.0124 15.3631H179.952V-90.5763H74.0124V15.3631ZM74.0124 23.6756L179.952 23.7299L179.952 23.7028V23.6756H74.0124ZM75.1619 24.8631L71.7719 130.748L73.4664 130.803H75.1619V24.8631ZM85.8969 24.8631V130.803H191.836V24.8631H85.8969ZM85.885 23.8419L191.719 19.1171L179.153 -262.35L3.15718 -42.3341L85.885 23.8419ZM76.3755 16.3488L151.286 -58.5617L-29.5639 -239.412V16.3488H76.3755ZM82.5268 22.5V128.439H338.287L157.437 -52.4105L82.5268 22.5ZM76.3755 22.5H-29.5639V128.439H76.3755V22.5ZM190.827 38.2908C193.159 21.3376 191.395 4.0726 185.685 -12.0589L-14.0474 58.6501C-19.6317 42.8763 -21.3559 25.994 -19.0755 9.41674L190.827 38.2908ZM189.572 1.88697L189.541 1.73735L-17.966 44.5547L-17.9351 44.7043L189.572 1.88697ZM188.793 -1.61302C186.105 -12.7988 181.67 -23.4907 175.653 -33.2956L-4.93268 77.5261C-10.5582 68.3592 -14.7042 58.3629 -17.2179 47.905L188.793 -1.61302ZM175.667 -33.2729C170.823 -41.1702 165.955 -46.8127 163.157 -49.8764C161.836 -51.3219 160.734 -52.4517 160.202 -52.9937C159.683 -53.5219 159.184 -54.0192 159.126 -54.0777L9.30494 95.7432C9.55514 95.9934 9.32682 95.7663 9.04636 95.4808C8.75241 95.1815 7.85664 94.267 6.71791 93.0203C4.2828 90.3544 -0.321434 85.0444 -4.94659 77.5034L175.667 -33.2729ZM159.14 -54.0632L152.989 -60.2169L3.13922 89.5751L9.29047 95.7287L159.14 -54.0632ZM153.119 -60.0869C153.045 -60.1607 152.542 -60.6671 151.996 -61.2048C151.438 -61.7546 150.297 -62.8699 148.838 -64.2047C145.727 -67.0512 140.133 -71.8704 132.338 -76.6716L21.2258 103.736C13.7889 99.1553 8.52833 94.6009 5.81496 92.1183C4.55493 90.9655 3.62936 90.057 3.31331 89.7457C3.00951 89.4464 2.77549 89.2102 3.0095 89.4451L153.119 -60.0869ZM132.104 -76.815C120.971 -83.6322 108.708 -88.4037 95.8955 -90.9042L55.3118 117.051C43.3325 114.714 31.8679 110.253 21.4592 103.879L132.104 -76.815ZM110.958 -86.7924C94.8265 -92.5033 77.5615 -94.2665 60.6085 -91.9344L89.4825 117.968C72.9054 120.248 56.0232 118.524 40.2492 112.94L110.958 -86.7924ZM77.9077 -92.8841C76.6872 -92.9171 75.6874 -92.9247 75.1689 -92.9275C74.6613 -92.9302 74.1681 -92.9299 74.0362 -92.9299V118.949C74.1567 118.949 74.1911 118.949 74.2106 118.949C74.2253 118.949 74.1532 118.949 74.0339 118.948C73.8479 118.947 73.1402 118.943 72.1833 118.917L77.9077 -92.8841ZM74.0362 -92.9299H66.4124V118.949H74.0362V-92.9299ZM66.4124 -92.9299C66.1677 -92.9299 59.6074 -93.0124 53.1019 -92.4806C45.3728 -91.8487 28.944 -89.871 10.7062 -80.5526L107.109 108.125C90.3908 116.667 75.7195 118.256 70.3654 118.694C67.6165 118.918 65.6631 118.944 65.4355 118.948C65.2043 118.952 65.1728 118.949 66.4124 118.949V-92.9299ZM10.5847 -80.4904C-10.5068 -69.6797 -27.6697 -52.5168 -38.4804 -31.4253L150.073 65.2201C140.633 83.6367 125.647 98.623 107.23 108.063L10.5847 -80.4904ZM-38.6034 -31.1846C-47.8466 -13.0374 -49.833 3.30139 -50.4698 11.0839C-51.0025 17.5936 -50.9199 24.1579 -50.9199 24.4H160.959C160.959 23.16 160.962 23.1928 160.958 23.4254C160.954 23.655 160.928 25.6118 160.703 28.3646C160.26 33.7744 158.662 48.3569 150.196 64.9794L-38.6034 -31.1846ZM-50.9199 24.4V39.6H160.959V24.4H-50.9199ZM-50.9199 39.6C-50.9199 39.8447 -51.0024 46.4051 -50.4706 52.9105C-49.8387 60.6396 -47.861 77.0684 -38.5426 95.3062L150.135 -1.0962C158.677 15.6216 160.266 30.2929 160.704 35.647C160.928 38.3959 160.954 40.3493 160.958 40.5769C160.962 40.8081 160.959 40.8396 160.959 39.6H-50.9199ZM-38.4804 95.4277C-27.6697 116.519 -10.5069 133.682 10.5847 144.493L107.23 -44.0603C125.647 -34.6206 140.633 -19.6343 150.073 -1.21772L-38.4804 95.4277ZM10.8254 144.616C28.9827 153.864 45.3301 155.847 53.0994 156.483C59.6069 157.015 66.1686 156.932 66.4124 156.932V-54.9465C65.1726 -54.9465 65.2049 -54.9492 65.437 -54.9455C65.666 -54.9419 67.6209 -54.916 70.3715 -54.691C75.7669 -54.2497 90.3569 -52.655 106.989 -44.1833L10.8254 144.616ZM66.4124 156.932H69.2624V-54.9465H66.4124V156.932ZM175.202 50.9929V48.6179H-36.677V50.9929H175.202ZM69.2624 -57.3215H66.4124V154.557H69.2624V-57.3215ZM66.4124 -57.3215C65.8889 -57.3215 65.6045 -57.3218 65.3933 -57.3225C65.1873 -57.3233 65.2549 -57.324 65.476 -57.3205C65.6948 -57.3171 66.2638 -57.3066 67.0591 -57.2745C67.8553 -57.2424 69.0804 -57.1808 70.6049 -57.0555L53.2424 154.111C59.6617 154.639 66.1468 154.557 66.4124 154.557V-57.3215ZM70.6017 -57.0557C76.1357 -56.6009 90.8155 -54.9771 107.595 -46.5341L12.3577 142.734C29.8825 151.553 45.6311 153.485 53.2456 154.111L70.6017 -57.0557ZM108.144 -46.2555C127.165 -36.5457 142.625 -21.0671 152.313 -2.03573L-36.5079 94.0845C-25.9104 114.903 -8.99809 131.834 11.808 142.456L108.144 -46.2555ZM152.17 -2.31753C161.04 14.9794 162.641 30.1775 163.078 35.6407L-48.1275 52.5178C-47.5247 60.0615 -45.6142 76.3283 -36.3639 94.3663L152.17 -2.31753ZM163.058 35.398C163.183 36.9153 163.245 38.1371 163.277 38.9372C163.309 39.735 163.32 40.3064 163.323 40.5275C163.327 40.7504 163.326 40.8193 163.325 40.6129C163.325 40.4013 163.324 40.116 163.324 39.5905H-48.5544C-48.5544 39.8676 -48.6355 46.3422 -48.1078 52.7605L163.058 35.398ZM163.324 39.5905V24.3905H-48.5544V39.5905H163.324ZM163.324 24.3905C163.324 23.8392 163.325 23.553 163.325 23.326C163.326 23.1085 163.327 23.1813 163.323 23.4113C163.32 23.6392 163.309 24.2387 163.275 25.0749C163.241 25.9122 163.175 27.206 163.039 28.816L-48.0884 10.9875C-48.6463 17.5936 -48.5544 24.3629 -48.5544 24.3905H163.324ZM163.078 28.3403C162.642 33.8035 161.04 49.0016 152.17 66.2985L-36.3639 -30.3853C-45.6142 -12.3473 -47.5247 3.91955 -48.1275 11.4632L163.078 28.3403ZM152.253 66.1354C142.564 85.1103 127.132 100.542 108.157 110.231L11.7997 -78.4693C-8.96112 -67.868 -25.8461 -50.9831 -36.4474 -30.2222L152.253 66.1354ZM108.32 110.148C91.0472 119.006 75.8643 120.617 70.3431 121.058L53.5042 -90.1509C45.8978 -89.5445 29.6508 -87.6239 11.6366 -78.3858L108.32 110.148ZM70.6049 121.036C69.0876 121.161 67.8658 121.223 67.0657 121.255C66.2679 121.287 65.6965 121.298 65.4754 121.301C65.2525 121.305 65.1836 121.304 65.39 121.304C65.6016 121.303 65.8869 121.303 66.4124 121.303V-90.5763C66.1353 -90.5763 59.6607 -90.6574 53.2424 -90.1297L70.6049 121.036ZM66.4124 121.303H74.0124V-90.5763H66.4124V121.303ZM-31.927 15.3631V23.6756H179.952V15.3631H-31.927ZM-31.927 23.6214C-31.9412 51.4488 -21.1267 78.1901 -1.77178 98.1848L150.465 -49.1805C169.391 -29.6291 179.966 -3.48059 179.952 23.7299L-31.927 23.6214ZM-1.77178 98.1848C17.583 118.179 43.9585 129.858 71.7719 130.748L78.552 -81.022C105.749 -80.1513 131.539 -68.7318 150.465 -49.1805L-1.77178 98.1848ZM75.1619 130.803H85.8969V-81.0763H75.1619V130.803ZM191.836 24.8631V24.8512H-20.0425V24.8631H191.836ZM191.836 24.8512C191.836 24.7729 191.837 24.0766 191.831 23.3419C191.824 22.5838 191.805 21.0352 191.719 19.1171L-19.949 28.5666C-20.0227 26.9145 -20.0359 25.6593 -20.0397 25.2337C-20.0433 24.8314 -20.0425 24.5069 -20.0425 24.8512H191.836ZM3.15718 -42.3341L3.14769 -42.3222L168.603 90.0297L168.613 90.0178L3.15718 -42.3341ZM1.46507 91.2592L7.61632 97.4105L157.437 -52.4105L151.286 -58.5617L1.46507 91.2592ZM82.5268 -83.4394H76.3755V128.439H82.5268V-83.4394ZM182.315 22.5V16.3488H-29.5639V22.5H182.315Z" fill="#777777" mask="url(#path-2-inside-1_115_2)"/>
<path d="M91.8483 44.0886H84.9392V50.9977H82.6361V44.0886H75.7271V41.7856H82.6361V34.8765H84.9392V41.7856H91.8483V44.0886Z" fill="#777777"/>
</g>
<defs>
<clipPath id="clip0_115_2">
<rect width="38" height="38" fill="white" transform="translate(55 13)"/>
</clipPath>
</defs>
</svg>
