<svg width="143" height="66" viewBox="0 0 143 66" fill="none" xmlns="http://www.w3.org/2000/svg">
<rect width="143" height="66" rx="20" fill="#393A3B"/>
<path d="M89.9167 37.8333V33C89.9167 28.4422 89.9167 26.1657 88.5005 24.7495C87.0843 23.3333 84.8078 23.3333 80.25 23.3333H77.0044C75.0276 23.3333 74.0416 23.3333 73.1522 22.966C72.2629 22.5987 71.5645 21.8978 70.1677 20.501L68.5823 18.9157C67.1855 17.5188 66.4847 16.818 65.5978 16.4507C64.7108 16.0833 63.72 16.0833 61.7456 16.0833H60.9167C56.3588 16.0833 54.0823 16.0833 52.6662 17.4995C51.25 18.9157 51.25 21.1922 51.25 25.75V40.25C51.25 44.8078 51.25 47.0843 52.6662 48.5005C54.0823 49.9167 56.3588 49.9167 60.9167 49.9167H77.8333M82.6667 49.9167H89.9167M89.9167 49.9167H97.1667M89.9167 49.9167V57.1667M89.9167 49.9167V42.6667" stroke="#777777" stroke-width="2.23077"/>
</svg>
